<svg width="16" height="16" viewBox="0 0 16 16" fill="none" xmlns="http://www.w3.org/2000/svg">
<g clip-path="url(#clip0)">
<path d="M2.66699 12C3.77156 12 4.66699 11.1046 4.66699 10C4.66699 8.89543 3.77156 8 2.66699 8C1.56242 8 0.666992 8.89543 0.666992 10C0.666992 11.1046 1.56242 12 2.66699 12Z" fill="#236852"/>
<path d="M3.33333 12H2C1.46975 12.0006 0.961388 12.2115 0.586444 12.5864C0.2115 12.9614 0.000595527 13.4697 0 14L0 15.3333C0 15.5101 0.0702379 15.6797 0.195262 15.8047C0.320286 15.9298 0.489856 16 0.666667 16H4.66667C4.84348 16 5.01305 15.9298 5.13807 15.8047C5.2631 15.6797 5.33333 15.5101 5.33333 15.3333V14C5.33274 13.4697 5.12183 12.9614 4.74689 12.5864C4.37195 12.2115 3.86358 12.0006 3.33333 12Z" fill="#236852"/>
<path d="M10 0C6.69167 0 4 2.3925 4 5.33333C4 6.7805 4.65158 8.14633 5.80392 9.14675L5.36758 10.4558C5.18425 11.0064 5.77692 11.5237 6.29817 11.2629L8.06158 10.3813C8.6901 10.5715 9.34332 10.6677 10 10.6667C13.3083 10.6667 16 8.27417 16 5.33333C16 2.3925 13.3083 0 10 0ZM7.33333 6C7.20148 6 7.07259 5.9609 6.96295 5.88765C6.85332 5.81439 6.76787 5.71027 6.71741 5.58846C6.66696 5.46664 6.65375 5.33259 6.67948 5.20327C6.7052 5.07395 6.76869 4.95516 6.86193 4.86193C6.95516 4.76869 7.07395 4.7052 7.20327 4.67948C7.33259 4.65375 7.46664 4.66696 7.58846 4.71741C7.71027 4.76787 7.81439 4.85332 7.88765 4.96295C7.9609 5.07259 8 5.20148 8 5.33333C8 5.51014 7.92976 5.67971 7.80474 5.80474C7.67971 5.92976 7.51014 6 7.33333 6ZM10 6C9.86815 6 9.73925 5.9609 9.62962 5.88765C9.51999 5.81439 9.43454 5.71027 9.38408 5.58846C9.33362 5.46664 9.32042 5.33259 9.34614 5.20327C9.37187 5.07395 9.43536 4.95516 9.5286 4.86193C9.62183 4.76869 9.74062 4.7052 9.86994 4.67948C9.99926 4.65375 10.1333 4.66696 10.2551 4.71741C10.3769 4.76787 10.4811 4.85332 10.5543 4.96295C10.6276 5.07259 10.6667 5.20148 10.6667 5.33333C10.6667 5.51014 10.5964 5.67971 10.4714 5.80474C10.3464 5.92976 10.1768 6 10 6ZM12.6667 6C12.5348 6 12.4059 5.9609 12.2963 5.88765C12.1867 5.81439 12.1012 5.71027 12.0507 5.58846C12.0003 5.46664 11.9871 5.33259 12.0128 5.20327C12.0385 5.07395 12.102 4.95516 12.1953 4.86193C12.2885 4.76869 12.4073 4.7052 12.5366 4.67948C12.6659 4.65375 12.8 4.66696 12.9218 4.71741C13.0436 4.76787 13.1477 4.85332 13.221 4.96295C13.2942 5.07259 13.3333 5.20148 13.3333 5.33333C13.3333 5.51014 13.2631 5.67971 13.1381 5.80474C13.013 5.92976 12.8435 6 12.6667 6Z" fill="#236852"/>
</g>
<defs>
<clipPath id="clip0">
<rect width="16" height="16" fill="white"/>
</clipPath>
</defs>
</svg>
